<svg width="181" height="58" viewBox="0 0 181 58" fill="none" xmlns="http://www.w3.org/2000/svg">
<path d="M26.032 38.56H19.312L10.48 13.344L9.456 44H0.944L3.44 1.248H13.424L22.64 28.768L31.92 1.248H41.904L44.4 44H35.824L34.8 13.408L26.032 38.56ZM52.315 57.632C50.395 57.632 48.155 57.248 45.595 56.48L46.939 50.272C46.939 50.3147 47.579 50.4213 48.859 50.592C50.139 50.8053 50.971 50.912 51.355 50.912C53.7443 50.912 55.4297 50.464 56.411 49.568C57.435 48.7147 58.3523 46.5813 59.163 43.168L47.195 12L55.707 10.912L63.067 33.568L69.595 11.168H78.235L67.867 41.312C65.6483 47.712 63.5363 52.0213 61.531 54.24C59.5683 56.5013 56.4963 57.632 52.315 57.632ZM104.99 3.552C107.891 5.42933 109.342 8.30933 109.342 12.192C109.342 16.0747 107.955 18.8693 105.182 20.576C107.657 21.6853 109.363 23.0507 110.302 24.672C111.283 26.2507 111.774 28.3413 111.774 30.944C111.774 34.9973 110.537 38.1973 108.062 40.544C105.63 42.848 101.918 44 96.926 44H82.846V1.248H92.19C95.4753 1.248 98.0567 1.39733 99.934 1.696C101.811 1.952 103.497 2.57066 104.99 3.552ZM91.998 8.032V17.824H96.286C99.0593 17.6107 100.446 15.8827 100.446 12.64C100.446 10.2507 99.5073 8.82133 97.63 8.352C96.7767 8.13866 95.3473 8.032 93.342 8.032H91.998ZM95.838 36.704C100.531 36.704 102.878 34.6987 102.878 30.688C102.878 28.3413 102.195 26.7413 100.83 25.888C99.5073 24.992 97.5873 24.544 95.07 24.544H91.998V36.704H95.838ZM146.899 42.912C144.723 44.1067 142.334 44.704 139.731 44.704C137.171 44.704 135.272 43.7227 134.035 41.76C131.56 43.808 128.659 44.832 125.331 44.832C122.003 44.832 119.486 44 117.779 42.336C116.072 40.6293 115.219 38.3253 115.219 35.424C115.219 33.504 115.624 31.8613 116.435 30.496C117.246 29.1307 118.291 28.128 119.571 27.488C121.918 26.3787 124.35 25.824 126.867 25.824C129.427 25.824 131.475 25.888 133.011 26.016V22.88C133.011 20.6613 132.563 19.232 131.667 18.592C130.771 17.952 129.235 17.632 127.059 17.632C124.926 17.632 122.515 18.08 119.827 18.976L117.971 13.344C119.55 12.4053 121.47 11.7013 123.731 11.232C126.035 10.72 127.998 10.464 129.619 10.464C133.971 10.464 137.064 11.4027 138.899 13.28C140.776 15.1147 141.715 18.272 141.715 22.752V36.192C141.715 37.3867 142.248 37.984 143.315 37.984C143.87 37.984 144.659 37.856 145.683 37.6L146.899 42.912ZM127.763 38.88C129.555 38.88 131.304 38.3253 133.011 37.216V30.496C131.816 30.4107 130.771 30.368 129.875 30.368C125.651 30.368 123.539 31.7333 123.539 34.464C123.539 37.408 124.947 38.88 127.763 38.88ZM155.076 5.152C156.996 3.53066 159.023 2.35733 161.156 1.632C163.332 0.906665 165.892 0.543999 168.836 0.543999C171.78 0.543999 175.279 1.09866 179.332 2.208L177.988 8.864C175.129 8.18133 172.143 7.84 169.028 7.84C165.913 7.84 163.353 8.928 161.348 11.104C159.343 13.2373 158.34 16.9707 158.34 22.304C158.34 32.2453 161.647 37.216 168.26 37.216C169.583 37.216 170.969 37.088 172.42 36.832V28.896H166.404V22.176H180.804V42.016C176.111 43.8933 171.332 44.832 166.468 44.832C161.604 44.832 157.508 43.0613 154.18 39.52C150.852 35.936 149.103 30.2613 148.932 22.496C148.932 18.4427 149.487 14.944 150.596 12C151.705 9.01333 153.199 6.73066 155.076 5.152Z" fill="#1F2C9D"/>
</svg>
